<svg width="370" height="47" viewBox="0 0 370 47" fill="none" xmlns="http://www.w3.org/2000/svg">
<mask id="path-1-outside-1_62_39" maskUnits="userSpaceOnUse" x="66" y="-0.757362" width="163" height="43" fill="black">
<rect fill="white" x="66" y="-0.757362" width="163" height="43"/>
<path d="M69.9114 14.6826V7.24264L85.9514 23.2426L101.951 7.24264V39.2426H96.6714V20.1226L85.9514 30.8026L69.9114 14.6826ZM132.075 7.24264C136.515 7.24264 140.235 8.84264 143.355 11.9626C146.515 15.0826 148.115 18.8426 148.115 23.2426C148.115 27.6826 146.515 31.4426 143.355 34.5226C140.235 37.6426 136.515 39.2426 132.075 39.2426C127.635 39.2426 123.915 37.6426 120.795 34.5226C117.675 31.4026 116.075 27.6826 116.075 23.2426C116.075 18.8426 117.675 15.0826 120.795 11.9626C123.875 8.84264 127.635 7.24264 132.075 7.24264ZM132.075 12.6026C129.155 12.6026 126.635 13.6026 124.515 15.7226C122.435 17.8026 121.435 20.3226 121.435 23.2426C121.435 26.1626 122.435 28.7226 124.515 30.8026C126.595 32.8826 129.155 33.8826 132.075 33.8826C134.995 33.8826 137.515 32.8826 139.595 30.8026C141.715 28.6826 142.715 26.1626 142.715 23.2426C142.715 20.3226 141.675 17.8026 139.595 15.7226C137.515 13.6426 134.995 12.6026 132.075 12.6026ZM174.18 23.9226C172.94 25.7226 171.38 27.0026 169.5 27.7626L176.06 39.2426H169.94L160.66 23.2026L165.42 23.2426C166.86 23.2426 168.1 22.7226 169.14 21.6826C170.22 20.6426 170.74 19.3626 170.74 17.8826C170.74 16.4426 170.22 15.2026 169.14 14.1626C168.1 13.1226 166.86 12.6026 165.42 12.6026H154.74L154.14 12.0026L151.38 7.24264H165.42C168.34 7.24264 170.86 8.28264 172.94 10.3626C175.02 12.4826 176.06 14.9626 176.06 17.8826C176.06 20.1226 175.46 22.1226 174.18 23.9226ZM203.09 28.6026L200.45 33.8826L197.73 39.2426H191.81L207.81 7.24264L218.49 28.6026H212.49L207.81 19.2026L203.09 28.6026ZM221.13 33.9226L223.81 39.2426H217.85L215.21 33.9226H221.13Z"/>
</mask>
<path d="M69.9114 14.6826V7.24264L85.9514 23.2426L101.951 7.24264V39.2426H96.6714V20.1226L85.9514 30.8026L69.9114 14.6826ZM132.075 7.24264C136.515 7.24264 140.235 8.84264 143.355 11.9626C146.515 15.0826 148.115 18.8426 148.115 23.2426C148.115 27.6826 146.515 31.4426 143.355 34.5226C140.235 37.6426 136.515 39.2426 132.075 39.2426C127.635 39.2426 123.915 37.6426 120.795 34.5226C117.675 31.4026 116.075 27.6826 116.075 23.2426C116.075 18.8426 117.675 15.0826 120.795 11.9626C123.875 8.84264 127.635 7.24264 132.075 7.24264ZM132.075 12.6026C129.155 12.6026 126.635 13.6026 124.515 15.7226C122.435 17.8026 121.435 20.3226 121.435 23.2426C121.435 26.1626 122.435 28.7226 124.515 30.8026C126.595 32.8826 129.155 33.8826 132.075 33.8826C134.995 33.8826 137.515 32.8826 139.595 30.8026C141.715 28.6826 142.715 26.1626 142.715 23.2426C142.715 20.3226 141.675 17.8026 139.595 15.7226C137.515 13.6426 134.995 12.6026 132.075 12.6026ZM174.18 23.9226C172.94 25.7226 171.38 27.0026 169.5 27.7626L176.06 39.2426H169.94L160.66 23.2026L165.42 23.2426C166.86 23.2426 168.1 22.7226 169.14 21.6826C170.22 20.6426 170.74 19.3626 170.74 17.8826C170.74 16.4426 170.22 15.2026 169.14 14.1626C168.1 13.1226 166.86 12.6026 165.42 12.6026H154.74L154.14 12.0026L151.38 7.24264H165.42C168.34 7.24264 170.86 8.28264 172.94 10.3626C175.02 12.4826 176.06 14.9626 176.06 17.8826C176.06 20.1226 175.46 22.1226 174.18 23.9226ZM203.09 28.6026L200.45 33.8826L197.73 39.2426H191.81L207.81 7.24264L218.49 28.6026H212.49L207.81 19.2026L203.09 28.6026ZM221.13 33.9226L223.81 39.2426H217.85L215.21 33.9226H221.13Z" fill="url(#paint0_linear_62_39)"/>
<path d="M69.9114 14.6826H66.9114V15.9209L67.7848 16.7987L69.9114 14.6826ZM69.9114 7.24264L72.03 5.11867L66.9114 0.0127648V7.24264H69.9114ZM85.9514 23.2426L83.8327 25.3666L85.954 27.4826L88.0727 25.364L85.9514 23.2426ZM101.951 7.24264H104.951V-3.14811e-06L99.83 5.12132L101.951 7.24264ZM101.951 39.2426V42.2426H104.951V39.2426H101.951ZM96.6714 39.2426H93.6714V42.2426H96.6714V39.2426ZM96.6714 20.1226H99.6714V12.8991L94.554 17.9974L96.6714 20.1226ZM85.9514 30.8026L83.8248 32.9187L85.9421 35.0466L88.0687 32.9279L85.9514 30.8026ZM69.9114 14.6826H72.9114V7.24264H69.9114H66.9114V14.6826H69.9114ZM69.9114 7.24264L67.7927 9.3666L83.8327 25.3666L85.9514 23.2426L88.07 21.1187L72.03 5.11867L69.9114 7.24264ZM85.9514 23.2426L88.0727 25.364L104.073 9.36396L101.951 7.24264L99.83 5.12132L83.83 21.1213L85.9514 23.2426ZM101.951 7.24264H98.9514V39.2426H101.951H104.951V7.24264H101.951ZM101.951 39.2426V36.2426H96.6714V39.2426V42.2426H101.951V39.2426ZM96.6714 39.2426H99.6714V20.1226H96.6714H93.6714V39.2426H96.6714ZM96.6714 20.1226L94.554 17.9974L83.834 28.6774L85.9514 30.8026L88.0687 32.9279L98.7887 22.2479L96.6714 20.1226ZM85.9514 30.8026L88.078 28.6866L72.038 12.5666L69.9114 14.6826L67.7848 16.7987L83.8248 32.9187L85.9514 30.8026ZM143.355 11.9626L141.234 14.084L141.241 14.0907L141.248 14.0974L143.355 11.9626ZM143.355 34.5226L141.261 32.3743L141.248 32.3877L141.234 32.4013L143.355 34.5226ZM120.795 34.5226L122.917 32.4013L122.917 32.4013L120.795 34.5226ZM120.795 11.9626L122.917 14.084L122.924 14.0771L122.93 14.0702L120.795 11.9626ZM124.515 15.7226L126.637 17.844L126.637 17.844L124.515 15.7226ZM139.595 30.8026L137.474 28.6813L137.474 28.6813L139.595 30.8026ZM139.595 15.7226L137.474 17.844L137.474 17.844L139.595 15.7226ZM132.075 7.24264V10.2426C135.694 10.2426 138.658 11.5079 141.234 14.084L143.355 11.9626L145.477 9.84132C141.813 6.1774 137.337 4.24264 132.075 4.24264V7.24264ZM143.355 11.9626L141.248 14.0974C143.85 16.6666 145.115 19.663 145.115 23.2426H148.115H151.115C151.115 18.0223 149.181 13.4987 145.463 9.82785L143.355 11.9626ZM148.115 23.2426H145.115C145.115 26.8695 143.845 29.856 141.261 32.3743L143.355 34.5226L145.449 36.671C149.186 33.0292 151.115 28.4958 151.115 23.2426H148.115ZM143.355 34.5226L141.234 32.4013C138.658 34.9774 135.694 36.2426 132.075 36.2426V39.2426V42.2426C137.337 42.2426 141.813 40.3079 145.477 36.644L143.355 34.5226ZM132.075 39.2426V36.2426C128.457 36.2426 125.493 34.9774 122.917 32.4013L120.795 34.5226L118.674 36.644C122.338 40.3079 126.814 42.2426 132.075 42.2426V39.2426ZM120.795 34.5226L122.917 32.4013C120.341 29.8252 119.075 26.8609 119.075 23.2426H116.075H113.075C113.075 28.5043 115.01 32.98 118.674 36.644L120.795 34.5226ZM116.075 23.2426H119.075C119.075 19.6603 120.344 16.6571 122.917 14.084L120.795 11.9626L118.674 9.84132C115.007 13.5082 113.075 18.025 113.075 23.2426H116.075ZM120.795 11.9626L122.93 14.0702C125.452 11.5154 128.446 10.2426 132.075 10.2426V7.24264V4.24264C126.825 4.24264 122.298 6.16987 118.66 9.85505L120.795 11.9626ZM132.075 12.6026V9.60264C128.38 9.60264 125.091 10.9044 122.394 13.6013L124.515 15.7226L126.637 17.844C128.18 16.3008 129.931 15.6026 132.075 15.6026V12.6026ZM124.515 15.7226L122.394 13.6013C119.731 16.2643 118.435 19.5563 118.435 23.2426H121.435H124.435C124.435 21.089 125.14 19.341 126.637 17.844L124.515 15.7226ZM121.435 23.2426H118.435C118.435 26.9168 119.723 30.2527 122.394 32.924L124.515 30.8026L126.637 28.6813C125.148 27.1926 124.435 25.4085 124.435 23.2426H121.435ZM124.515 30.8026L122.394 32.924C125.065 35.5952 128.401 36.8826 132.075 36.8826V33.8826V30.8826C129.91 30.8826 128.125 30.17 126.637 28.6813L124.515 30.8026ZM132.075 33.8826V36.8826C135.762 36.8826 139.054 35.5869 141.717 32.924L139.595 30.8026L137.474 28.6813C135.977 30.1783 134.229 30.8826 132.075 30.8826V33.8826ZM139.595 30.8026L141.717 32.924C144.414 30.2271 145.715 26.9379 145.715 23.2426H142.715H139.715C139.715 25.3874 139.017 27.1382 137.474 28.6813L139.595 30.8026ZM142.715 23.2426H145.715C145.715 19.5265 144.359 16.2436 141.717 13.6013L139.595 15.7226L137.474 17.844C138.992 19.3617 139.715 21.1188 139.715 23.2426H142.715ZM139.595 15.7226L141.717 13.6013C139.074 10.959 135.792 9.60264 132.075 9.60264V12.6026V15.6026C134.199 15.6026 135.956 16.3262 137.474 17.844L139.595 15.7226ZM174.18 23.9226L171.735 22.1841L171.722 22.2023L171.71 22.2207L174.18 23.9226ZM169.5 27.7626L168.376 24.9813L165.191 26.2687L166.895 29.2511L169.5 27.7626ZM176.06 39.2426V42.2426H181.23L178.665 37.7542L176.06 39.2426ZM169.94 39.2426L167.343 40.745L168.21 42.2426H169.94V39.2426ZM160.66 23.2026L160.685 20.2027L155.433 20.1586L158.063 24.705L160.66 23.2026ZM165.42 23.2426L165.395 26.2425L165.408 26.2426H165.42V23.2426ZM169.14 21.6826L167.059 19.5217L167.039 19.5413L167.019 19.5613L169.14 21.6826ZM169.14 14.1626L167.019 16.284L167.039 16.304L167.059 16.3236L169.14 14.1626ZM154.74 12.6026L152.619 14.724L153.497 15.6026H154.74V12.6026ZM154.14 12.0026L151.545 13.5075L151.742 13.8467L152.019 14.124L154.14 12.0026ZM151.38 7.24264V4.24264H146.173L148.785 8.74747L151.38 7.24264ZM172.94 10.3626L175.082 8.26161L175.072 8.25142L175.061 8.24131L172.94 10.3626ZM174.18 23.9226L171.71 22.2207C170.776 23.5763 169.668 24.4588 168.376 24.9813L169.5 27.7626L170.624 30.544C173.092 29.5465 175.104 27.869 176.651 25.6246L174.18 23.9226ZM169.5 27.7626L166.895 29.2511L173.455 40.7311L176.06 39.2426L178.665 37.7542L172.105 26.2742L169.5 27.7626ZM176.06 39.2426V36.2426H169.94V39.2426V42.2426H176.06V39.2426ZM169.94 39.2426L172.537 37.7403L163.257 21.7003L160.66 23.2026L158.063 24.705L167.343 40.745L169.94 39.2426ZM160.66 23.2026L160.635 26.2025L165.395 26.2425L165.42 23.2426L165.445 20.2427L160.685 20.2027L160.66 23.2026ZM165.42 23.2426V26.2426C167.675 26.2426 169.672 25.3931 171.261 23.804L169.14 21.6826L167.019 19.5613C166.528 20.0522 166.046 20.2426 165.42 20.2426V23.2426ZM169.14 21.6826L171.221 23.8436C172.909 22.2178 173.74 20.1482 173.74 17.8826H170.74H167.74C167.74 18.5771 167.531 19.0675 167.059 19.5217L169.14 21.6826ZM170.74 17.8826H173.74C173.74 15.6196 172.883 13.6018 171.221 12.0017L169.14 14.1626L167.059 16.3236C167.558 16.8035 167.74 17.2657 167.74 17.8826H170.74ZM169.14 14.1626L171.261 12.0413C169.672 10.4522 167.675 9.60264 165.42 9.60264V12.6026V15.6026C166.046 15.6026 166.528 15.7931 167.019 16.284L169.14 14.1626ZM165.42 12.6026V9.60264H154.74V12.6026V15.6026H165.42V12.6026ZM154.74 12.6026L156.861 10.4813L156.261 9.88132L154.14 12.0026L152.019 14.124L152.619 14.724L154.74 12.6026ZM154.14 12.0026L156.735 10.4978L153.975 5.73781L151.38 7.24264L148.785 8.74747L151.545 13.5075L154.14 12.0026ZM151.38 7.24264V10.2426H165.42V7.24264V4.24264H151.38V7.24264ZM165.42 7.24264V10.2426C167.544 10.2426 169.301 10.9662 170.819 12.484L172.94 10.3626L175.061 8.24131C172.419 5.59904 169.136 4.24264 165.42 4.24264V7.24264ZM172.94 10.3626L170.799 12.4637C172.348 14.0423 173.06 15.7753 173.06 17.8826H176.06H179.06C179.06 14.1499 177.693 10.923 175.082 8.26161L172.94 10.3626ZM176.06 17.8826H173.06C173.06 19.5416 172.63 20.9251 171.735 22.1841L174.18 23.9226L176.625 25.6612C178.29 23.3201 179.06 20.7036 179.06 17.8826H176.06ZM203.09 28.6026L200.409 27.2564L200.407 27.261L203.09 28.6026ZM200.45 33.8826L203.125 35.2402L203.129 35.2323L203.133 35.2243L200.45 33.8826ZM197.73 39.2426V42.2426H199.572L200.405 40.6002L197.73 39.2426ZM191.81 39.2426L189.127 37.901L186.956 42.2426H191.81V39.2426ZM207.81 7.24264L210.493 5.901L207.81 0.534433L205.127 5.901L207.81 7.24264ZM218.49 28.6026V31.6026H223.344L221.173 27.261L218.49 28.6026ZM212.49 28.6026L209.804 29.9397L210.632 31.6026H212.49V28.6026ZM207.81 19.2026L210.495 17.8656L207.821 12.4944L205.129 17.8564L207.81 19.2026ZM221.13 33.9226L223.809 32.5729L222.978 30.9226H221.13V33.9226ZM223.81 39.2426V42.2426H228.68L226.489 37.8929L223.81 39.2426ZM217.85 39.2426L215.162 40.5762L215.989 42.2426H217.85V39.2426ZM215.21 33.9226V30.9226H210.372L212.522 35.2562L215.21 33.9226ZM203.09 28.6026L200.407 27.261L197.767 32.541L200.45 33.8826L203.133 35.2243L205.773 29.9443L203.09 28.6026ZM200.45 33.8826L197.775 32.525L195.055 37.885L197.73 39.2426L200.405 40.6002L203.125 35.2402L200.45 33.8826ZM197.73 39.2426V36.2426H191.81V39.2426V42.2426H197.73V39.2426ZM191.81 39.2426L194.493 40.5843L210.493 8.58428L207.81 7.24264L205.127 5.901L189.127 37.901L191.81 39.2426ZM207.81 7.24264L205.127 8.58428L215.807 29.9443L218.49 28.6026L221.173 27.261L210.493 5.901L207.81 7.24264ZM218.49 28.6026V25.6026H212.49V28.6026V31.6026H218.49V28.6026ZM212.49 28.6026L215.175 27.2656L210.495 17.8656L207.81 19.2026L205.124 20.5397L209.804 29.9397L212.49 28.6026ZM207.81 19.2026L205.129 17.8564L200.409 27.2564L203.09 28.6026L205.771 29.9488L210.491 20.5488L207.81 19.2026ZM221.13 33.9226L218.451 35.2723L221.131 40.5923L223.81 39.2426L226.489 37.8929L223.809 32.5729L221.13 33.9226ZM223.81 39.2426V36.2426H217.85V39.2426V42.2426H223.81V39.2426ZM217.85 39.2426L220.537 37.9091L217.897 32.5891L215.21 33.9226L212.522 35.2562L215.162 40.5762L217.85 39.2426ZM215.21 33.9226V36.9226H221.13V33.9226V30.9226H215.21V33.9226Z" fill="url(#paint1_linear_62_39)" mask="url(#path-1-outside-1_62_39)"/>
<g filter="url(#filter0_d_62_39)">
<path d="M85.3145 35.4419V33.5819L89.3245 37.5819L93.3245 33.5819V41.5819H92.0045V36.8019L89.3245 39.4719L85.3145 35.4419ZM100.855 33.5819C101.965 33.5819 102.895 33.9819 103.675 34.7619C104.465 35.5419 104.865 36.4819 104.865 37.5819C104.865 38.6919 104.465 39.6319 103.675 40.4019C102.895 41.1819 101.965 41.5819 100.855 41.5819C99.7455 41.5819 98.8155 41.1819 98.0355 40.4019C97.2555 39.6219 96.8555 38.6919 96.8555 37.5819C96.8555 36.4819 97.2555 35.5419 98.0355 34.7619C98.8055 33.9819 99.7455 33.5819 100.855 33.5819ZM100.855 34.9219C100.125 34.9219 99.4955 35.1719 98.9655 35.7019C98.4455 36.2219 98.1955 36.8519 98.1955 37.5819C98.1955 38.3119 98.4455 38.9519 98.9655 39.4719C99.4855 39.9919 100.125 40.2419 100.855 40.2419C101.585 40.2419 102.215 39.9919 102.735 39.4719C103.265 38.9419 103.515 38.3119 103.515 37.5819C103.515 36.8519 103.255 36.2219 102.735 35.7019C102.215 35.1819 101.585 34.9219 100.855 34.9219ZM111.641 36.0419C111.851 36.5219 111.951 37.0319 111.951 37.5819C111.951 38.1319 111.851 38.6419 111.641 39.1219C111.421 39.6119 111.141 40.0319 110.781 40.4019C110.421 40.7619 109.991 41.0519 109.501 41.2619C109.021 41.4719 108.501 41.5819 107.951 41.5819H105.291L106.621 40.2419H107.951C108.321 40.2419 108.671 40.1719 108.991 40.0419C109.311 39.9019 109.601 39.7119 109.841 39.4619C110.081 39.2119 110.271 38.9319 110.411 38.6119C110.551 38.2819 110.621 37.9419 110.621 37.5819C110.621 37.2219 110.551 36.8819 110.411 36.5519C110.271 36.2319 110.081 35.9519 109.831 35.7019C109.591 35.4619 109.301 35.2619 108.981 35.1219C108.661 34.9919 108.311 34.9219 107.951 34.9219H106.621L105.291 33.5819H107.951C108.501 33.5819 109.011 33.6919 109.501 33.9019C109.981 34.1119 110.411 34.4019 110.771 34.7619C111.141 35.1319 111.421 35.5519 111.641 36.0419ZM114.254 41.4719L115.584 40.2419H119.584V41.5819H114.254V41.4719ZM114.254 33.5819H119.584V34.9219H115.584L114.254 33.5819ZM114.254 36.9219H115.584H119.584V38.2519H115.584H114.254V36.9219ZM127.149 37.7519C126.839 38.2019 126.449 38.5219 125.979 38.7119L127.619 41.5819H126.089L123.769 37.5719L124.959 37.5819C125.319 37.5819 125.629 37.4519 125.889 37.1919C126.159 36.9319 126.289 36.6119 126.289 36.2419C126.289 35.8819 126.159 35.5719 125.889 35.3119C125.629 35.0519 125.319 34.9219 124.959 34.9219H122.289L122.139 34.7719L121.449 33.5819H124.959C125.689 33.5819 126.319 33.8419 126.839 34.3619C127.359 34.8919 127.619 35.5119 127.619 36.2419C127.619 36.8019 127.469 37.3019 127.149 37.7519ZM135.293 33.5819H136.623V41.5619V41.5719V41.5819L129.973 35.6019V33.5819L135.293 38.3719V33.5819ZM143.476 38.9219L142.816 40.2419L142.136 41.5819H140.656L144.656 33.5819L147.326 38.9219H145.826L144.656 36.5719L143.476 38.9219ZM147.986 40.2519L148.656 41.5819H147.166L146.506 40.2519H147.986ZM152.521 38.2519H150.531C149.881 38.2519 149.331 38.0219 148.881 37.5719C148.431 37.1119 148.201 36.5619 148.201 35.9119C148.201 35.2719 148.431 34.7319 148.881 34.2719C149.331 33.8119 149.881 33.5819 150.531 33.5819V34.9219C150.391 34.9219 150.261 34.9419 150.141 34.9919C150.011 35.0419 149.911 35.1119 149.811 35.2119C149.721 35.3019 149.651 35.4119 149.601 35.5319C149.551 35.6519 149.531 35.7819 149.531 35.9119C149.531 36.1919 149.621 36.4219 149.811 36.6219C150.011 36.8219 150.241 36.9219 150.531 36.9219H152.521C153.171 36.9219 153.721 37.1519 154.171 37.6019C154.631 38.0619 154.861 38.6119 154.861 39.2519C154.861 39.8919 154.631 40.4419 154.171 40.9019C153.721 41.3519 153.171 41.5819 152.521 41.5819V40.2419C152.661 40.2419 152.791 40.2219 152.911 40.1719C153.041 40.1219 153.151 40.0519 153.241 39.9619C153.331 39.8719 153.401 39.7719 153.451 39.6419C153.501 39.5219 153.531 39.3919 153.531 39.2519C153.531 38.9819 153.421 38.7519 153.231 38.5519C153.031 38.3519 152.801 38.2519 152.521 38.2519ZM162.946 34.3619C163.466 34.8919 163.726 35.5219 163.726 36.2519C163.726 36.9819 163.476 37.6219 162.946 38.1419C162.426 38.6619 161.796 38.9219 161.066 38.9219H158.396V41.5819H157.066V37.5819H158.396H161.066C161.426 37.5819 161.736 37.4519 161.996 37.1919C162.256 36.9319 162.396 36.6219 162.396 36.2519C162.396 35.8919 162.266 35.5719 161.996 35.3119C161.736 35.0519 161.426 34.9219 161.066 34.9219H158.396L157.066 33.5819H161.066C161.796 33.5819 162.426 33.8419 162.946 34.3619ZM165.717 41.4719L167.047 40.2419H171.047V41.5819H165.717V41.4719ZM165.717 33.5819H171.047V34.9219H167.047L165.717 33.5819ZM165.717 36.9219H167.047H171.047V38.2519H167.047H165.717V36.9219ZM176.534 41.2619C176.044 41.0519 175.624 40.7619 175.254 40.4019C174.894 40.0319 174.604 39.6119 174.394 39.1219C174.184 38.6319 174.074 38.1219 174.074 37.5819C174.074 37.0319 174.184 36.5119 174.394 36.0219C174.604 35.5419 174.894 35.1219 175.254 34.7619C175.624 34.3919 176.044 34.1119 176.534 33.9019C177.014 33.6919 177.534 33.5819 178.084 33.5819C178.634 33.5819 179.154 33.6819 179.634 33.8919C180.114 34.1019 180.544 34.3919 180.914 34.7619L179.964 35.6919C179.434 35.1719 178.804 34.9219 178.084 34.9219C177.714 34.9219 177.364 34.9919 177.044 35.1219C176.714 35.2619 176.434 35.4519 176.194 35.7019C175.954 35.9419 175.764 36.2219 175.624 36.5419C175.484 36.8719 175.414 37.2119 175.414 37.5819C175.414 37.9519 175.484 38.2919 175.624 38.6219C175.764 38.9419 175.954 39.2219 176.204 39.4619C176.444 39.7119 176.724 39.9019 177.044 40.0419C177.374 40.1719 177.714 40.2419 178.084 40.2419L179.634 41.2719C179.154 41.4819 178.634 41.5819 178.084 41.5819C177.534 41.5819 177.014 41.4719 176.534 41.2619ZM183.271 33.5819H187.271V34.9219H184.611V41.5819H183.271V34.9219V33.5819ZM192.924 33.5819C194.034 33.5819 194.964 33.9819 195.744 34.7619C196.534 35.5419 196.934 36.4819 196.934 37.5819C196.934 38.6919 196.534 39.6319 195.744 40.4019C194.964 41.1819 194.034 41.5819 192.924 41.5819C191.814 41.5819 190.884 41.1819 190.104 40.4019C189.324 39.6219 188.924 38.6919 188.924 37.5819C188.924 36.4819 189.324 35.5419 190.104 34.7619C190.874 33.9819 191.814 33.5819 192.924 33.5819ZM192.924 34.9219C192.194 34.9219 191.564 35.1719 191.034 35.7019C190.514 36.2219 190.264 36.8519 190.264 37.5819C190.264 38.3119 190.514 38.9519 191.034 39.4719C191.554 39.9919 192.194 40.2419 192.924 40.2419C193.654 40.2419 194.284 39.9919 194.804 39.4719C195.334 38.9419 195.584 38.3119 195.584 37.5819C195.584 36.8519 195.324 36.2219 194.804 35.7019C194.284 35.1819 193.654 34.9219 192.924 34.9219ZM199.42 37.5719H200.75H204.75V38.9219H200.75V41.5819H199.42V37.5719ZM199.42 33.5819H204.75V34.9219H200.75L199.42 33.5819ZM210.247 41.2619C209.757 41.0519 209.337 40.7619 208.967 40.4019C208.607 40.0319 208.317 39.6119 208.107 39.1219C207.897 38.6319 207.787 38.1219 207.787 37.5819C207.787 37.0319 207.897 36.5119 208.107 36.0219C208.317 35.5419 208.607 35.1219 208.967 34.7619C209.337 34.3919 209.757 34.1119 210.247 33.9019C210.727 33.6919 211.247 33.5819 211.797 33.5819C212.347 33.5819 212.867 33.6819 213.347 33.8919C213.827 34.1019 214.257 34.3919 214.627 34.7619L213.677 35.6919C213.147 35.1719 212.517 34.9219 211.797 34.9219C211.427 34.9219 211.077 34.9919 210.757 35.1219C210.427 35.2619 210.147 35.4519 209.907 35.7019C209.667 35.9419 209.477 36.2219 209.337 36.5419C209.197 36.8719 209.127 37.2119 209.127 37.5819C209.127 37.9519 209.197 38.2919 209.337 38.6219C209.477 38.9419 209.667 39.2219 209.917 39.4619C210.157 39.7119 210.437 39.9019 210.757 40.0419C211.087 40.1719 211.427 40.2419 211.797 40.2419L213.347 41.2719C212.867 41.4819 212.347 41.5819 211.797 41.5819C211.247 41.5819 210.727 41.4719 210.247 41.2619ZM220.984 33.5819C222.094 33.5819 223.024 33.9819 223.804 34.7619C224.594 35.5419 224.994 36.4819 224.994 37.5819C224.994 38.6919 224.594 39.6319 223.804 40.4019C223.024 41.1819 222.094 41.5819 220.984 41.5819C219.874 41.5819 218.944 41.1819 218.164 40.4019C217.384 39.6219 216.984 38.6919 216.984 37.5819C216.984 36.4819 217.384 35.5419 218.164 34.7619C218.934 33.9819 219.874 33.5819 220.984 33.5819ZM220.984 34.9219C220.254 34.9219 219.624 35.1719 219.094 35.7019C218.574 36.2219 218.324 36.8519 218.324 37.5819C218.324 38.3119 218.574 38.9519 219.094 39.4719C219.614 39.9919 220.254 40.2419 220.984 40.2419C221.714 40.2419 222.344 39.9919 222.864 39.4719C223.394 38.9419 223.644 38.3119 223.644 37.5819C223.644 36.8519 223.384 36.2219 222.864 35.7019C222.344 35.1819 221.714 34.9219 220.984 34.9219ZM226.855 35.4419V33.5819L230.865 37.5819L234.865 33.5819V41.5819H233.545V36.8019L230.865 39.4719L226.855 35.4419ZM237.332 35.4419V33.5819L241.342 37.5819L245.342 33.5819V41.5819H244.022V36.8019L241.342 39.4719L237.332 35.4419ZM254.203 38.2519H255.533C255.533 39.1719 255.213 39.9619 254.553 40.6119C253.903 41.2619 253.103 41.5819 252.193 41.5819C251.283 41.5819 250.493 41.2619 249.843 40.6119C249.193 39.9619 248.873 39.1619 248.873 38.2519V33.5819H250.203V38.2519C250.203 38.8019 250.393 39.2719 250.773 39.6519C251.163 40.0519 251.643 40.2419 252.193 40.2419C252.743 40.2419 253.213 40.0419 253.603 39.6519C253.993 39.2619 254.203 38.7919 254.203 38.2519ZM260.451 33.5819H261.781V41.5619V41.5719V41.5819L255.131 35.6019V33.5819L260.451 38.3719V33.5819ZM266.644 34.9019V40.2419L265.314 41.5819V33.5819L266.644 34.9019ZM268.711 33.5819H272.711V34.9219H270.051V41.5819H268.711V34.9219V33.5819ZM280.639 37.5819L279.789 38.6719V38.6619L277.519 41.5819H275.809L278.949 37.5819L275.809 33.5819H277.519L279.789 36.5019L282.069 33.5819H283.759L280.639 37.5819ZM279.789 38.6619V38.6719L277.519 41.5819L279.789 38.6619Z" fill="black"/>
</g>
<defs>
<filter id="filter0_d_62_39" x="85.3145" y="33.5819" width="198.444" height="12" filterUnits="userSpaceOnUse" color-interpolation-filters="sRGB">
<feFlood flood-opacity="0" result="BackgroundImageFix"/>
<feColorMatrix in="SourceAlpha" type="matrix" values="0 0 0 0 0 0 0 0 0 0 0 0 0 0 0 0 0 0 127 0" result="hardAlpha"/>
<feOffset dy="4"/>
<feComposite in2="hardAlpha" operator="out"/>
<feColorMatrix type="matrix" values="0 0 0 0 0 0 0 0 0 0 0 0 0 0 0 0 0 0 0.1 0"/>
<feBlend mode="normal" in2="BackgroundImageFix" result="effect1_dropShadow_62_39"/>
<feBlend mode="normal" in="SourceGraphic" in2="effect1_dropShadow_62_39" result="shape"/>
</filter>
<linearGradient id="paint0_linear_62_39" x1="234.698" y1="5.24265" x2="59.7883" y2="33.3925" gradientUnits="userSpaceOnUse">
<stop stop-color="#00C1EC"/>
<stop offset="0.50673" stop-color="#4170DA"/>
<stop offset="1" stop-color="#4700DF"/>
</linearGradient>
<linearGradient id="paint1_linear_62_39" x1="234.698" y1="5.24265" x2="59.7883" y2="33.3925" gradientUnits="userSpaceOnUse">
<stop stop-color="#00C1EC"/>
<stop offset="0.50673" stop-color="#4170DA"/>
<stop offset="1" stop-color="#4700DF"/>
</linearGradient>
</defs>
</svg>
